<?xml version="1.0" encoding="UTF-8" standalone="no"?>
<!DOCTYPE svg PUBLIC "-//W3C//DTD SVG 1.1//EN" "http://www.w3.org/Graphics/SVG/1.1/DTD/svg11.dtd">
<svg version="1.1" xmlns="http://www.w3.org/2000/svg" xmlns:xlink="http://www.w3.org/1999/xlink" preserveAspectRatio="xMidYMid meet" viewBox="0 0 512 512" width="512" height="512"><defs><path d="M512 256C512 397.29 397.29 512 256 512C114.71 512 0 397.29 0 256C0 114.71 114.71 0 256 0C397.29 0 512 114.71 512 256Z" id="hRWRRsA7f"></path><path d="M448 256C448 361.97 361.97 448 256 448C150.03 448 64 361.97 64 256C64 150.03 150.03 64 256 64C361.97 64 448 150.03 448 256Z" id="c9dcGpFAo"></path><path d="M320 256C320 291.32 291.32 320 256 320C220.68 320 192 291.32 192 256C192 220.68 220.68 192 256 192C291.32 192 320 220.68 320 256Z" id="d3lPQ7D99R"></path><path d="M288 256C288 273.66 273.66 288 256 288C238.34 288 224 273.66 224 256C224 238.34 238.34 224 256 224C273.66 224 288 238.34 288 256Z" id="b5OprK33YB"></path></defs><g><g><g><use xlink:href="#hRWRRsA7f" opacity="1" fill="#e8bf87" fill-opacity="1"></use></g><g><use xlink:href="#c9dcGpFAo" opacity="1" fill="#e06d72" fill-opacity="1"></use></g><g><use xlink:href="#d3lPQ7D99R" opacity="1" fill="#ece0d0" fill-opacity="1"></use></g><g><use xlink:href="#b5OprK33YB" opacity="1" fill="#e06d72" fill-opacity="1"></use></g></g></g></svg>